<?xml version="1.0" standalone="no"?><!DOCTYPE svg PUBLIC "-//W3C//DTD SVG 1.1//EN" "http://www.w3.org/Graphics/SVG/1.1/DTD/svg11.dtd"><svg t="1777340847516" class="icon" viewBox="0 0 1024 1024" version="1.1" xmlns="http://www.w3.org/2000/svg" p-id="2704" xmlns:xlink="http://www.w3.org/1999/xlink" width="64" height="64"><path d="M279.272727 186.181818q0-4.561455 0.930909-9.076363 0.837818-4.514909 2.606546-8.750546 1.768727-4.189091 4.328727-8.052364 2.513455-3.770182 5.771636-7.028363 3.258182-3.258182 7.028364-5.771637 3.816727-2.56 8.052364-4.328727 4.235636-1.768727 8.750545-2.653091Q321.256727 139.636364 325.818182 139.636364h558.545454q4.608 0 9.076364 0.930909 4.514909 0.837818 8.750545 2.606545 4.189091 1.768727 8.052364 4.328727 3.770182 2.513455 7.028364 5.771637 3.258182 3.258182 5.771636 7.028363 2.56 3.816727 4.328727 8.052364 1.768727 4.235636 2.653091 8.750546Q930.909091 181.620364 930.909091 186.181818t-0.930909 9.076364q-0.837818 4.514909-2.606546 8.750545-1.768727 4.189091-4.328727 8.052364-2.513455 3.770182-5.771636 7.028364-3.258182 3.258182-7.028364 5.771636-3.816727 2.56-8.052364 4.328727-4.235636 1.768727-8.750545 2.653091Q889.018182 232.727273 884.363636 232.727273H325.818182q-4.561455 0-9.076364-0.930909-4.514909-0.837818-8.750545-2.606546-4.189091-1.768727-8.052364-4.328727-3.770182-2.513455-7.028364-5.771636-3.258182-3.258182-5.771636-7.028364-2.56-3.816727-4.328727-8.052364-1.768727-4.235636-2.653091-8.750545Q279.272727 190.743273 279.272727 186.181818zM93.090909 186.181818q0-4.561455 0.930909-9.076363 0.837818-4.514909 2.606546-8.750546 1.768727-4.189091 4.328727-8.052364 2.513455-3.770182 5.771636-7.028363 3.258182-3.258182 7.028364-5.771637 3.816727-2.56 8.052364-4.328727 4.235636-1.768727 8.750545-2.653091Q135.074909 139.636364 139.636364 139.636364t9.076363 0.930909q4.514909 0.837818 8.750546 2.606545 4.189091 1.768727 8.052363 4.328727 3.770182 2.513455 7.028364 5.771637 3.258182 3.258182 5.771636 7.028363 2.56 3.816727 4.328728 8.052364 1.768727 4.235636 2.653091 8.750546Q186.181818 181.620364 186.181818 186.181818t-0.930909 9.076364q-0.837818 4.514909-2.606545 8.750545-1.768727 4.189091-4.328728 8.052364-2.513455 3.770182-5.771636 7.028364-3.258182 3.258182-7.028364 5.771636-3.816727 2.56-8.052363 4.328727-4.235636 1.768727-8.750546 2.653091Q144.197818 232.727273 139.636364 232.727273t-9.076364-0.930909q-4.514909-0.837818-8.750545-2.606546-4.189091-1.768727-8.052364-4.328727-3.770182-2.513455-7.028364-5.771636-3.258182-3.258182-5.771636-7.028364-2.56-3.816727-4.328727-8.052364-1.768727-4.235636-2.653091-8.750545Q93.090909 190.743273 93.090909 186.181818z m186.181818 325.818182q0-4.561455 0.930909-9.076364 0.837818-4.514909 2.606546-8.750545 1.768727-4.189091 4.328727-8.052364 2.513455-3.770182 5.771636-7.028363 3.258182-3.258182 7.028364-5.771637 3.816727-2.56 8.052364-4.328727 4.235636-1.768727 8.750545-2.653091Q321.256727 465.454545 325.818182 465.454545h558.545454q4.608 0 9.076364 0.93091 4.514909 0.837818 8.750545 2.606545 4.189091 1.768727 8.052364 4.328727 3.770182 2.513455 7.028364 5.771637 3.258182 3.258182 5.771636 7.028363 2.56 3.816727 4.328727 8.052364 1.768727 4.235636 2.653091 8.750545 0.884364 4.514909 0.884364 9.076364t-0.930909 9.076364q-0.837818 4.514909-2.606546 8.750545-1.768727 4.189091-4.328727 8.052364-2.513455 3.770182-5.771636 7.028363-3.258182 3.258182-7.028364 5.771637-3.816727 2.56-8.052364 4.328727-4.235636 1.768727-8.750545 2.653091Q889.018182 558.545455 884.363636 558.545455H325.818182q-4.561455 0-9.076364-0.93091-4.514909-0.837818-8.750545-2.606545-4.189091-1.768727-8.052364-4.328727-3.770182-2.513455-7.028364-5.771637-3.258182-3.258182-5.771636-7.028363-2.56-3.816727-4.328727-8.052364-1.768727-4.235636-2.653091-8.750545Q279.272727 516.561455 279.272727 512z m-186.181818 0q0-4.561455 0.930909-9.076364 0.837818-4.514909 2.606546-8.750545 1.768727-4.189091 4.328727-8.052364 2.513455-3.770182 5.771636-7.028363 3.258182-3.258182 7.028364-5.771637 3.816727-2.56 8.052364-4.328727 4.235636-1.768727 8.750545-2.653091Q135.074909 465.454545 139.636364 465.454545t9.076363 0.93091q4.514909 0.837818 8.750546 2.606545 4.189091 1.768727 8.052363 4.328727 3.770182 2.513455 7.028364 5.771637 3.258182 3.258182 5.771636 7.028363 2.56 3.816727 4.328728 8.052364 1.768727 4.235636 2.653091 8.750545Q186.181818 507.438545 186.181818 512t-0.930909 9.076364q-0.837818 4.514909-2.606545 8.750545-1.768727 4.189091-4.328728 8.052364-2.513455 3.770182-5.771636 7.028363-3.258182 3.258182-7.028364 5.771637-3.816727 2.56-8.052363 4.328727-4.235636 1.768727-8.750546 2.653091Q144.197818 558.545455 139.636364 558.545455t-9.076364-0.93091q-4.514909-0.837818-8.750545-2.606545-4.189091-1.768727-8.052364-4.328727-3.770182-2.513455-7.028364-5.771637-3.258182-3.258182-5.771636-7.028363-2.56-3.816727-4.328727-8.052364-1.768727-4.235636-2.653091-8.750545Q93.090909 516.561455 93.090909 512z m186.181818 325.818182q0-4.608 0.930909-9.076364 0.837818-4.514909 2.606546-8.750545 1.768727-4.189091 4.328727-8.052364 2.513455-3.770182 5.771636-7.028364 3.258182-3.258182 7.028364-5.771636 3.816727-2.56 8.052364-4.328727 4.235636-1.768727 8.750545-2.653091Q321.256727 791.272727 325.818182 791.272727h558.545454q4.608 0 9.076364 0.930909 4.514909 0.837818 8.750545 2.606546 4.189091 1.768727 8.052364 4.328727 3.770182 2.513455 7.028364 5.771636 3.258182 3.258182 5.771636 7.028364 2.56 3.816727 4.328727 8.052364 1.768727 4.235636 2.653091 8.750545Q930.909091 833.163636 930.909091 837.818182t-0.930909 9.076363q-0.837818 4.514909-2.606546 8.750546-1.768727 4.189091-4.328727 8.052364-2.513455 3.770182-5.771636 7.028363-3.258182 3.258182-7.028364 5.771637-3.816727 2.56-8.052364 4.328727-4.235636 1.768727-8.750545 2.653091Q889.018182 884.363636 884.363636 884.363636H325.818182q-4.561455 0-9.076364-0.930909-4.514909-0.837818-8.750545-2.606545-4.189091-1.768727-8.052364-4.328727-3.770182-2.513455-7.028364-5.771637-3.258182-3.258182-5.771636-7.028363-2.56-3.816727-4.328727-8.052364-1.768727-4.235636-2.653091-8.750546Q279.272727 842.472727 279.272727 837.818182z m-186.181818 0q0-4.608 0.930909-9.076364 0.837818-4.514909 2.606546-8.750545 1.768727-4.189091 4.328727-8.052364 2.513455-3.770182 5.771636-7.028364 3.258182-3.258182 7.028364-5.771636 3.816727-2.56 8.052364-4.328727 4.235636-1.768727 8.750545-2.653091Q135.074909 791.272727 139.636364 791.272727t9.076363 0.930909q4.514909 0.837818 8.750546 2.606546 4.189091 1.768727 8.052363 4.328727 3.770182 2.513455 7.028364 5.771636 3.258182 3.258182 5.771636 7.028364 2.56 3.816727 4.328728 8.052364 1.768727 4.235636 2.653091 8.750545Q186.181818 833.163636 186.181818 837.818182t-0.930909 9.076363q-0.837818 4.514909-2.606545 8.750546-1.768727 4.189091-4.328728 8.052364-2.513455 3.770182-5.771636 7.028363-3.258182 3.258182-7.028364 5.771637-3.816727 2.56-8.052363 4.328727-4.235636 1.768727-8.750546 2.653091Q144.197818 884.363636 139.636364 884.363636t-9.076364-0.930909q-4.514909-0.837818-8.750545-2.606545-4.189091-1.768727-8.052364-4.328727-3.770182-2.513455-7.028364-5.771637-3.258182-3.258182-5.771636-7.028363-2.56-3.816727-4.328727-8.052364-1.768727-4.235636-2.653091-8.750546Q93.090909 842.472727 93.090909 837.818182z" fill="#2c2c2c" p-id="2705"></path></svg>