<?xml version="1.0" standalone="no"?><!DOCTYPE svg PUBLIC "-//W3C//DTD SVG 1.1//EN" "http://www.w3.org/Graphics/SVG/1.1/DTD/svg11.dtd"><svg t="1780046166762" class="icon" viewBox="0 0 1024 1024" version="1.1" xmlns="http://www.w3.org/2000/svg" p-id="3950" xmlns:xlink="http://www.w3.org/1999/xlink" width="64" height="64"><path d="M460.9 511.7L168.5 218.4c-14-14.1-14-36.9 0.1-50.9s36.9-14 50.9 0.1l292.2 293.1 292.2-293.1c14-14.1 36.8-14.1 50.9-0.1 14.1 14 14.1 36.8 0.1 50.9L562.5 511.7 854.9 805c14 14.1 14 36.9-0.1 50.9s-36.9 14-50.9-0.1L511.7 562.7 219.5 855.8c-14 14.1-36.8 14.1-50.9 0.1s-14.1-36.8-0.1-50.9l292.4-293.3z" fill="#2c2c2c" p-id="3951"></path></svg>