<?xml version="1.0" standalone="no"?><!DOCTYPE svg PUBLIC "-//W3C//DTD SVG 1.1//EN" "http://www.w3.org/Graphics/SVG/1.1/DTD/svg11.dtd"><svg t="1780005553834" class="icon" viewBox="0 0 1024 1024" version="1.1" xmlns="http://www.w3.org/2000/svg" p-id="4048" xmlns:xlink="http://www.w3.org/1999/xlink" width="64" height="64"><path d="M904.72727281 133.41090875h-236.85818156a43.63636406 43.63636406 0 0 0-43.63636406 43.63636406v32.72727281H363.33090875a110.00727281 110.00727281 0 0 0-109.96363594 110.00727282v108.21818156H119.27272719a43.63636406 43.63636406 0 0 0-43.63636313 43.63636406v109.09090875a43.63636406 43.63636406 0 0 0 43.63636313 43.63636313h134.05090875v108.13090969a110.00727281 110.00727281 0 0 0 110.00727281 110.00727281h260.94545531v32.72727281a43.63636406 43.63636406 0 0 0 43.63636313 43.63636313H904.72727281a43.63636406 43.63636406 0 0 0 43.63636313-43.63636313v-109.09090969a43.63636406 43.63636406 0 0 0-43.63636313-43.63636312h-236.90181843a43.63636406 43.63636406 0 0 0-43.63636313 43.63636312v32.72727282H363.33090875a66.32727281 66.32727281 0 0 1-66.32727281-66.32727282v-108.21818156h59.17090968a43.63636406 43.63636406 0 0 0 43.63636313-43.63636406v-33.29454469l224.42181844 0.56727281v32.72727188a43.63636406 43.63636406 0 0 0 43.63636406 43.63636406h236.9018175a43.63636406 43.63636406 0 0 0 43.63636406-43.63636406v-109.09090875a43.63636406 43.63636406 0 0 0-43.63636406-43.63636313h-236.9018175a43.63636406 43.63636406 0 0 0-43.63636406 43.63636313v32.72727281L399.85454563 503.70909125v-32.16a43.63636406 43.63636406 0 0 0-43.63636407-43.63636406H296.96V319.78181844c0-36.65454563 29.71636406-66.32727281 66.37090875-66.32727282h260.94545531v32.72727282a43.63636406 43.63636406 0 0 0 43.63636313 43.63636312H904.72727281a43.63636406 43.63636406 0 0 0 43.63636313-43.63636312v-109.09090969a43.63636406 43.63636406 0 0 0-43.63636313-43.63636313z" fill="#2c2c2c" p-id="4049"></path></svg>