<?xml version="1.0" standalone="no"?><!DOCTYPE svg PUBLIC "-//W3C//DTD SVG 1.1//EN" "http://www.w3.org/Graphics/SVG/1.1/DTD/svg11.dtd"><svg t="1780005551044" class="icon" viewBox="0 0 1024 1024" version="1.1" xmlns="http://www.w3.org/2000/svg" p-id="3890" xmlns:xlink="http://www.w3.org/1999/xlink" width="64" height="64"><path d="M923 430.8125c-11.0625-55.5-32.625-107.25-64.125-153.75-30.46875-44.90625-68.8125-82.96875-114.09375-113.25S649.625 112.53125 596.5625 101.5625c-55.03125-11.4375-111.09375-11.625-166.59375-0.65625-76.21875 15.09375-145.3125 50.15625-201.75 102.09375l-89.0625-91.6875C130.4375 102.3125 115.0625 108.40625 114.875 120.96875l-3.375 233.4375c-0.09375 7.78125 6.09375 14.25 13.875 14.34375l233.4375 3.375c12.5625 0.1875 19.125-14.90625 10.3125-24L275.28125 251.46875c47.0625-42.84375 104.53125-71.71875 167.8125-84.28125 92.25-18.28125 186.09375 0.46875 264.1875 52.6875 78.1875 52.3125 131.25 131.8125 149.53125 224.0625s-0.46875 186.09375-52.6875 264.1875c-52.3125 78.1875-131.8125 131.25-224.0625 149.53125-72.46875 14.34375-146.25 5.90625-213.375-24.46875-65.71875-29.71875-119.90625-77.90625-156.9375-139.40625-9.5625-15.9375-30.375-21.1875-46.3125-11.53125-15.9375 9.5625-21.09375 30.375-11.53125 46.3125 21.9375 36.46875 49.21875 69.375 81.28125 97.6875 31.59375 28.03125 67.21875 51.09375 105.65625 68.53125 54.65625 24.75 112.96875 37.3125 172.03125 37.3125 27.375 0 54.9375-2.71875 82.3125-8.15625 55.5-11.0625 107.25-32.625 153.75-64.125 44.90625-30.46875 82.96875-68.8125 113.25-114.09375s51.1875-95.15625 62.25-148.3125c11.4375-55.03125 11.625-111.09375 0.5625-166.59375z" fill="#2c2c2c" p-id="3891"></path></svg>