<?xml version="1.0" standalone="no"?><!DOCTYPE svg PUBLIC "-//W3C//DTD SVG 1.1//EN" "http://www.w3.org/Graphics/SVG/1.1/DTD/svg11.dtd"><svg t="1780046042899" class="icon" viewBox="0 0 1024 1024" version="1.1" xmlns="http://www.w3.org/2000/svg" p-id="3920" xmlns:xlink="http://www.w3.org/1999/xlink" width="64" height="64"><path d="M873.23046875 440.64379883c-9.72290039-48.77929688-28.67431641-94.26269531-56.35986328-135.13183594-26.77917481-39.46838379-60.47973633-72.92175293-100.27770997-99.53613281S632.95947266 160.90441894 586.32250977 151.26391602c-48.36730958-10.05249023-97.64099122-10.21728516-146.42028809-0.57678224-66.98913575 13.26599122-127.71606445 44.08264161-177.31933593 89.73083497l-78.2775879-80.5847168C176.64233398 151.9230957 163.12915039 157.27893066 162.96435547 168.32019043l-2.96630859 205.16967774c-0.08239747 6.83898926 5.35583497 12.52441406 12.19482421 12.60681152l205.16967774 2.96630859c11.04125977 0.16479492 16.80908203-13.10119629 9.0637207-21.09375L303.94641113 283.01745605c41.36352539-37.65563965 91.87316895-63.03405762 147.49145509-74.07531738 81.07910156-16.06750489 163.55895997 0.41198731 232.19604491 46.30737305 68.71948242 45.9777832 115.35644531 115.85083008 131.4239502 196.92993164s-0.41198731 163.55895997-46.30737305 232.19604492c-45.9777832 68.71948242-115.85083008 115.35644531-196.92993164 131.4239502-63.69323731 12.60681153-128.54003906 5.19104004-187.53662109-21.50573731-57.76062012-26.11999512-105.38635254-68.47229004-137.93334961-122.52502442-8.40454102-14.00756836-26.69677734-18.62182617-40.70434571-10.13488769-14.00756836 8.40454102-18.53942872 26.69677734-10.1348877 40.70434571 19.28100586 32.05261231 43.258667 60.97412109 71.43859864 85.85815429 27.76794434 24.63684083 59.0789795 44.90661622 92.86193848 60.23254395 48.03771973 21.75292969 99.28894043 32.79418945 151.19934082 32.79418945 24.06005859 0 48.28491211-2.38952637 72.3449707-7.1685791 48.77929688-9.72290039 94.26269531-28.67431641 135.13183594-56.35986328 39.46838379-26.77917481 72.92175293-60.47973633 99.53613281-100.27770997s44.98901367-83.63342286 54.71191406-130.35278319c10.05249023-48.36730958 10.21728516-97.64099122 0.49438477-146.42028809z" fill="#2c2c2c" p-id="3921"></path></svg>