<?xml version="1.0" standalone="no"?><!DOCTYPE svg PUBLIC "-//W3C//DTD SVG 1.1//EN" "http://www.w3.org/Graphics/SVG/1.1/DTD/svg11.dtd"><svg t="1780047489557" class="icon" viewBox="0 0 1024 1024" version="1.1" xmlns="http://www.w3.org/2000/svg" p-id="3980" xmlns:xlink="http://www.w3.org/1999/xlink" width="64" height="64"><path d="M537.00000031 322.53999969c0-44.37 8.83999969-78.18 26.52999938-101.32999969 17.68999969-23.20000031 43.99999969-34.75000031 79.00000031-34.75000031 17.85 0 33.93 4.8 48.21 14.53000031 14.28 9.66 25.36000031 23.88 33.24 42.58999969 5.7-21.22000031 16.51999969-37.57999969 32.4-49.06999969 15.76000031-11.65999969 34.62-17.50999969 56.77999969-17.50999969 36.6 0 64.72000031 11.86000031 84.38000062 35.53999969C917.19999969 236.10000031 927.00000031 269.91999969 927.00000031 313.92000031V456.99999969h-390z m210-20.4V387.00000031h120v-78.92000062c0-22.33000031-5.20000031-39.76000031-15.53000062-52.29-10.39000031-12.52999969-24.82000031-18.79000031-43.29-18.78999938-39.93 0-60.34000031 21.73000031-61.17999938 65.13999938z m-160.00000031 15.84V387.00000031h109.99999969v-69.56000062c0-22.09000031-4.69999969-39.27-14.22999938-51.61999969-9.69-12.57-23.32999969-18.82000031-40.88000062-18.82000031-19.36000031 0-33.37999969 5.82-42 17.4-8.61 11.43-12.88999969 29.26999969-12.88999969 53.58zM463.32999969 389.79999969L677.03 942.00000031H574.7L528.5 813.45999969H309.72000031L263.97000031 942.00000031H162.00000031l213.33-552.20000062h87.99999938z m-44.16 117.3l-81.87999938 228.98000062H501.00000031L419.16999969 507.09999969zM351.30000031 328.85a114.67999969 114.67999969 0 0 1-18.72 59.31c-11.43 17.04-27.61999969 30.25999969-48.37000031 39.72a168.88000031 168.88000031 0 0 1-70.84999969 14.08999969c-43.8 0-78.33-13.78000031-103.53-41.22C84.63000031 373.13 72.00000031 334.41999969 72.00000031 284.31000031v-15.78c0-31.44 5.65000031-58.93999969 16.95-82.43000062a125.83999969 125.83999969 0 0 1 49.26-54.67999969C159.60000031 118.44999969 184.35999969 111.99999969 212.48 111.99999969c40.5 0 73.00000031 10.27000031 97.62 30.88000031 24.57 20.41999969 38.59999969 48.6 41.89999969 84.61999969h-80.16999938c-0.64000031-19.54000031-5.71999969-33.57-15.36-42.09-9.64999969-8.52-24.31999969-12.78-44.00000062-12.78-19.99000031 0-34.65 7.2-43.98 21.61000031-9.34000031 14.4-14.22 37.39999969-14.67 68.95999969v22.74c0 34.26 4.45000031 58.69999969 13.33000031 73.41 8.95000031 14.71999969 24.37999969 22.05 46.21000031 22.05 18.54 0 32.62999969-4.2 42.39999938-12.52999969 9.78-8.4 14.98999969-21.73000031 15.62000062-39.96h79.98999938l-0.06999938-0.06zM722 612.02V882.00000031h96.28999969c24.07999969 0.18 47.80000031-5.58 68.80000031-16.72000031 20.59999969-11.11999969 36.58000031-26.43 47.82-45.97000031 11.37-19.66999969 17.08000031-41.85 17.08000031-66.55999969v-12.40999969a128.64 128.64 0 0 0-17.67-66.19000031c-11.07-19.36999969-27.84-35.29999969-48.27-45.85000031a147.33 147.33 0 0 0-69.78-16.27999969H722z m70.56 219.88999969V662.28999969h23.71000031c20.80000031 0 36.64000031 6.57 47.43 19.79000062 10.90999969 13.21000031 16.30000031 32.88 16.29999938 58.99999969v11.67c0 26.17999969-5.38999969 45.97000031-16.23999938 59.29999969-10.84999969 13.21999969-26.44000031 19.86-46.64000062 19.86h-24.55999969z" fill="#2c2c2c" p-id="3981"></path></svg>