<?xml version="1.0" standalone="no"?><!DOCTYPE svg PUBLIC "-//W3C//DTD SVG 1.1//EN" "http://www.w3.org/Graphics/SVG/1.1/DTD/svg11.dtd"><svg t="1780040410987" class="icon" viewBox="0 0 1024 1024" version="1.1" xmlns="http://www.w3.org/2000/svg" p-id="3920" xmlns:xlink="http://www.w3.org/1999/xlink" width="64" height="64"><path d="M840.17648533 587.96218133h-87.38133333v248.24242454h92.34618133a124.12121173 124.12121173 0 0 0 90.85672747-30.7820608 124.61769707 124.61769707 0 0 0 30.7820608-94.82860587 114.688 114.688 0 0 0-126.60363627-122.63175787z m-26.31369706 55.606304h24.3277568c43.69066667 0 64.04654507 22.34181867 65.03951573 68.01842347s-19.85939413 70.99733333-64.5430304 70.99733333h-24.82424213z m-397.18787947-224.411152L214.1090912 932.52266667h109.22666667l49.64848426-130.0790304h198.5939392l49.64848534 130.0790304h110.7161216L524.4121216 419.15733333z m53.62036373 116.6739392v9.4332128s7.94375787 19.3629088 66.03248534 169.7978176H402.77333333c54.116848-141.00169707 64.5430304-167.31539413 66.5289696-171.28727253z m-248.24242453 60.07466667c-99.2969696-5.46133333-152.91733333-62.5570912-158.37866667-169.7978176 3.9718784-112.7020608 57.59224213-168.804848 157.8821824-175.259152A142.98763627 142.98763627 0 0 1 363.05454507 351.63539413l4.96484906 14.3980608-74.47272746 19.3629088-3.9718784-12.90860586a68.01842453 68.01842453 0 0 0-67.52194027-53.62036374c-31.27854507 0-75.46569707 15.88751467-80.43054507 106.24775787 3.47539413 89.36727253 49.64848533 103.268848 80.9270304 106.2477568A70.99733333 70.99733333 0 0 0 295.0361216 462.35151467l2.9789088-14.89454507 73.47975787 21.34884907-2.97890987 12.41212053a135.0438784 135.0438784 0 0 1-147.456 115.18448533z m710.46981867-202.06933333A110.21963627 110.21963627 0 0 0 859.53939413 296.52557547a102.2758784 102.2758784 0 0 0 53.1238784-93.83563627c-3.9718784-47.1660608-32.768-104.26181867-148.94545386-107.73721173h-180.72048534v424.9910304h194.12557547c128.58957547 0 155.39975787-68.5149088 155.39975787-126.107152z m-93.83563627-3.9718784c0 26.81018133-7.94375787 58.08872747-71.49381867 58.08872746H670.875152V339.71975787h92.34618133c65.03951467 1.48945493 74.47272747 29.7890912 75.96218134 50.1449696zM755.7740608 263.75757547H670.875152V169.42545493h84.8989088c59.08169707 0 67.02545493 25.32072747 67.5219392 43.69066667S814.35927253 263.75757547 755.7740608 263.75757547z" fill="#2c2c2c" p-id="3921"></path></svg>